<svg width="1024" height="1024" viewBox="0 0 1024 1024" fill="none" xmlns="http://www.w3.org/2000/svg">
<g clip-path="url(#clip0_19_9)">
<path fill-rule="evenodd" clip-rule="evenodd" d="M512 0C229.23 0 0 229.23 0 512C0 794.77 229.23 1024 512 1024C794.77 1024 1024 794.77 1024 512C1024 229.23 794.77 0 512 0ZM495.114 439.385L565.664 258.028C571.331 255.087 579.826 254.096 591.15 255.056C631.918 258.513 650.657 279.633 647.369 318.419C645.785 337.104 637.217 355.767 621.665 374.408C606.42 392.791 585.608 409.56 559.231 424.718C538.238 436.91 520.239 442.37 505.234 441.098C501.837 440.81 498.463 440.239 495.114 439.385ZM479.019 482.93C480.536 478.496 482.016 474.487 483.46 470.902C489.866 479.429 496.063 485.372 502.051 488.732C508.04 492.091 518.829 495.999 534.418 500.458C551.448 504.753 564.596 509.431 573.861 514.494C583.41 519.581 591.812 526.423 599.066 535.022C613.835 552.527 620.236 572.887 618.268 596.102C616.468 617.335 609.371 638.832 596.976 660.592C584.581 682.352 569.335 700.735 551.24 715.739C538.98 725.82 526.123 732.856 512.667 736.848C499.52 740.581 484.594 741.739 467.891 740.323C453.453 739.099 439.005 736.306 424.547 731.944C419.456 730.385 417.665 729.903 415.914 729.305C412.792 728.238 409.796 726.802 388.45 718.243C389.325 716.478 390.382 714.344 391.65 711.783C400.865 693.578 427.438 621.816 449.061 563.425C459.585 535.003 468.937 509.749 474.542 495.381C476.01 491.514 477.503 487.363 479.019 482.93ZM356.239 362.171L293.593 510.836C279.931 544.18 231.11 686.625 220.447 718.227C209.808 749.546 204.117 769.594 203.373 778.37C202.053 793.941 201.3 819.78 210.157 829.655C219.015 839.531 231.229 845.128 246.8 846.448C247.708 846.525 248.95 846.648 250.449 846.797C261.11 847.851 284.773 850.192 293.593 846.448C302.299 844.173 314.688 833.509 326.737 822.366L336.179 825.82C356.414 832.668 377.714 837.04 400.079 838.936C426.691 841.192 459.27 836.968 497.816 826.264C536.362 815.56 574.997 800.443 613.721 780.915C652.728 761.411 686.793 739.634 715.92 715.585C729.385 704.751 741.118 692.486 751.118 678.792C761.401 665.122 769.444 650.976 775.246 636.356C781.331 621.759 784.961 607.525 786.137 593.653C792.017 524.292 745.813 479.029 647.523 457.865L647.703 455.742C654.003 455.421 658.464 454.943 661.083 454.31C684.543 450.026 709.969 439.35 737.364 422.283C762.066 406.698 780.649 389.312 793.111 370.124C805.573 350.935 812.896 328.46 815.08 302.697C816.64 284.295 813.244 267.184 804.89 251.363C796.819 235.567 784.169 221.663 766.938 209.652C749.731 197.358 728.476 187.429 703.169 179.866C678.146 172.327 649.78 167.214 618.072 164.526C565.698 160.086 517.81 161.586 474.408 169.027C431.289 176.492 398.592 188.833 376.317 206.049C366.514 214.057 356.339 226.453 345.792 243.238C335.244 260.022 329.574 273.086 328.782 282.428C328.038 291.204 333.47 296.085 345.077 297.069C353.287 297.765 367.496 294.977 387.702 288.706C393.038 286.307 396.425 285.026 397.865 284.863C382.068 309.757 368.192 335.526 356.239 362.171Z" fill="url(#paint0_linear_19_9)"/>
</g>
<defs>
<linearGradient id="paint0_linear_19_9" x1="-183.467" y1="84.3852" x2="1314.13" y2="1096.06" gradientUnits="userSpaceOnUse">
<stop offset="0.494587" stop-color="#FF4D4D"/>
<stop offset="1" stop-color="#F3BCC8"/>
</linearGradient>
<clipPath id="clip0_19_9">
<rect width="1024" height="1024" fill="white"/>
</clipPath>
</defs>
</svg>
