<svg width="1080" height="1080" viewBox="0 0 1080 1080" fill="none" xmlns="http://www.w3.org/2000/svg">
<g clip-path="url(#clip0_3_88)">
<path fill-rule="evenodd" clip-rule="evenodd" d="M1080 0H0V1080H1080V0ZM521.473 456.883L602.302 249.101C608.795 245.731 618.528 244.596 631.503 245.696C678.21 249.655 699.68 273.854 695.913 318.291C694.098 339.698 684.282 361.081 666.463 382.439C648.997 403.499 625.153 422.713 594.932 440.079C570.88 454.047 550.258 460.303 533.067 458.846C529.175 458.516 525.31 457.861 521.473 456.883ZM503.032 506.773C504.77 501.693 506.466 497.1 508.121 492.993C515.46 502.763 522.56 509.572 529.421 513.42C536.281 517.269 548.643 521.747 566.504 526.855C586.015 531.776 601.078 537.136 611.694 542.936C622.634 548.764 632.26 556.604 640.572 566.456C657.493 586.512 664.826 609.838 662.571 636.436C660.509 660.762 652.377 685.391 638.176 710.323C623.975 735.254 606.509 756.315 585.777 773.505C571.73 785.055 556.999 793.117 541.584 797.69C526.52 801.967 509.42 803.294 490.283 801.672C473.74 800.269 457.187 797.069 440.623 792.071C434.79 790.286 432.738 789.733 430.731 789.048C427.154 787.825 423.722 786.18 399.266 776.374C400.268 774.351 401.48 771.907 402.932 768.973C413.49 748.115 443.935 665.896 468.708 598.997C480.766 566.434 491.48 537.5 497.903 521.039C499.585 516.608 501.295 511.852 503.032 506.773ZM362.361 368.419L290.588 538.746C274.935 576.948 219 740.149 206.783 776.356C194.594 812.238 188.073 835.207 187.221 845.262C185.709 863.102 184.846 892.706 194.994 904.02C205.142 915.335 219.136 921.748 236.976 923.261C238.016 923.349 239.439 923.49 241.157 923.659C253.371 924.868 280.483 927.55 290.588 923.261C300.562 920.653 314.756 908.435 328.561 895.669L339.379 899.626C362.562 907.472 386.966 912.481 412.59 914.653C443.08 917.238 480.406 912.398 524.568 900.135C568.731 887.871 612.995 870.552 657.362 848.178C702.052 825.832 741.082 800.882 774.453 773.329C789.88 760.916 803.322 746.865 814.779 731.175C826.561 715.512 835.775 699.306 842.423 682.555C849.394 665.831 853.553 649.523 854.901 633.629C861.638 554.162 808.702 502.304 696.09 478.056L696.296 475.624C703.514 475.256 708.624 474.709 711.626 473.983C738.504 469.075 767.635 456.843 799.021 437.289C827.323 419.434 848.613 399.514 862.891 377.53C877.169 355.545 885.559 329.795 888.061 300.278C889.849 279.195 885.957 259.59 876.386 241.464C867.14 223.366 852.646 207.436 832.905 193.675C813.191 179.59 788.838 168.215 759.844 159.55C731.174 150.912 698.675 145.053 662.347 141.974C602.341 136.886 547.475 138.606 497.749 147.131C448.347 155.684 410.886 169.822 385.366 189.547C374.134 198.722 362.476 212.925 350.392 232.155C338.307 251.385 331.812 266.352 330.904 277.056C330.052 287.111 336.275 292.702 349.573 293.83C358.98 294.627 375.258 291.434 398.409 284.249C404.522 281.5 408.404 280.032 410.053 279.846C391.954 308.367 376.057 337.891 362.361 368.419Z" fill="#FF4D4D"/>
</g>
<defs>
<clipPath id="clip0_3_88">
<rect width="1080" height="1080" fill="white"/>
</clipPath>
</defs>
</svg>
