<svg width="52" height="54" viewBox="0 0 52 54" fill="none" xmlns="http://www.w3.org/2000/svg">
<path d="M49.7714 10.706C48.401 8.9875 46.4397 7.89507 44.3064 7.66203C44.171 6.37851 43.7598 5.1432 43.1034 4.04775C42.447 2.95231 41.5622 2.02482 40.5146 1.3341C39.467 0.643379 38.2836 0.207146 37.052 0.057759C35.8205 -0.0916279 34.5724 0.0496653 33.4005 0.471157C32.2285 0.892649 31.1627 1.58352 30.2821 2.49253C29.4015 3.40155 28.7288 4.50537 28.3137 5.72212C27.8986 6.93887 27.7519 8.23733 27.8845 9.52118C28.017 10.805 28.4254 12.0413 29.0794 13.1384C29.0804 13.1447 29.0804 13.1512 29.0794 13.1575L12.9484 29.9688H12.9255C11.8721 29.2878 10.685 28.8624 9.45223 28.7244C8.21946 28.5863 6.97266 28.7391 5.80432 29.1714C4.63598 29.6036 3.57608 30.3043 2.70324 31.2214C1.83039 32.1385 1.16701 33.2484 0.762286 34.4689C0.357565 35.6895 0.221893 36.9892 0.365336 38.2718C0.508779 39.5544 0.927656 40.7869 1.59089 41.8779C2.25413 42.9688 3.14471 43.8903 4.19658 44.5739C5.24844 45.2576 6.43459 45.6858 7.66705 45.8268C7.80248 47.1103 8.21365 48.3456 8.87007 49.4411C9.52648 50.5365 10.4113 51.464 11.4589 52.1547C12.5064 52.8455 13.6899 53.2817 14.9214 53.4311C16.153 53.5805 17.401 53.4392 18.573 53.0177C19.745 52.5962 20.8108 51.9053 21.6914 50.9963C22.5719 50.0873 23.2447 48.9835 23.6598 47.7667C24.0748 46.55 24.2215 45.2515 24.089 43.9677C23.9564 42.6838 23.548 41.4475 22.8941 40.3505C22.8936 40.3441 22.8936 40.3377 22.8941 40.3313L39.0342 23.52H39.0572C40.7239 24.6134 42.711 25.0503 44.66 24.752C46.6089 24.4537 48.3912 23.4398 49.6855 21.8932C50.9797 20.3467 51.7006 18.3693 51.718 16.3179C51.7354 14.2665 51.0483 12.2762 49.7805 10.706H49.7714ZM46.8875 19.3721C46.1698 20.228 45.1827 20.7895 44.1034 20.9559C43.024 21.1223 41.9231 20.8827 40.9981 20.2801C40.2939 19.8147 39.4585 19.613 38.6294 19.7081C37.8004 19.8032 37.0272 20.1895 36.4371 20.8034L20.2855 37.6242C19.6975 38.2399 19.3283 39.0458 19.2386 39.9091C19.149 40.7724 19.3442 41.6418 19.7922 42.3742C20.1829 43.0286 20.4158 43.7717 20.471 44.5402C20.5263 45.3086 20.4023 46.0795 20.1097 46.7873C19.817 47.495 19.3644 48.1185 18.7903 48.6047C18.2163 49.0909 17.5378 49.4252 16.8129 49.5793C16.0879 49.7334 15.3379 49.7026 14.6268 49.4896C13.9157 49.2766 13.2647 48.8876 12.7291 48.3559C12.1936 47.8242 11.7895 47.1655 11.5512 46.436C11.313 45.7064 11.2476 44.9277 11.3608 44.1662C11.4019 43.8933 11.3858 43.6144 11.3134 43.3487C11.2411 43.083 11.1144 42.8367 10.9419 42.6269C10.7694 42.4171 10.5553 42.2487 10.3143 42.1333C10.0734 42.0179 9.81127 41.9583 9.54605 41.9585C9.45155 41.9593 9.35724 41.9673 9.26386 41.9824C8.5334 42.0993 7.78663 42.0308 7.08706 41.7827C6.38749 41.5345 5.75583 41.1141 5.2458 40.5571C4.73578 40.0001 4.36249 39.323 4.15769 38.5835C3.95289 37.844 3.92263 37.0639 4.0695 36.3096C4.21637 35.5553 4.53601 34.8491 5.00124 34.251C5.46646 33.653 6.06351 33.1809 6.74158 32.8748C7.41966 32.5686 8.15869 32.4376 8.89582 32.4929C9.63296 32.5481 10.3464 32.788 10.9754 33.192C11.6796 33.6574 12.515 33.8591 13.3441 33.764C14.1731 33.6689 14.9463 33.2826 15.5364 32.6688L31.688 15.8479C32.2738 15.2328 32.6416 14.4288 32.7312 13.5676C32.8208 12.7063 32.6269 11.8389 32.1812 11.1074C31.7906 10.453 31.5577 9.70993 31.5024 8.94151C31.4472 8.17309 31.5711 7.40215 31.8638 6.69441C32.1564 5.98668 32.6091 5.36315 33.1831 4.87698C33.7572 4.39081 34.4356 4.05643 35.1606 3.90235C35.8856 3.74826 36.6356 3.77905 37.3466 3.99207C38.0577 4.2051 38.7088 4.59405 39.2443 5.12577C39.7799 5.65748 40.184 6.31618 40.4223 7.04571C40.6605 7.77523 40.7258 8.55395 40.6127 9.31545C40.568 9.61285 40.5914 9.91704 40.681 10.2032C40.7706 10.4894 40.9238 10.7495 41.1282 10.9624C41.3326 11.1753 41.5823 11.3348 41.8572 11.4281C42.132 11.5214 42.424 11.5458 42.7096 11.4993C43.644 11.3418 44.6022 11.4891 45.453 11.921C46.3038 12.3529 47.0056 13.0482 47.4621 13.9117C47.9186 14.7752 48.1076 15.7646 48.003 16.7443C47.8985 17.724 47.5057 18.646 46.8783 19.3841L46.8875 19.3721Z" fill="#FF4D4D"/>
<path d="M46.8875 19.3722C46.1697 20.228 45.1827 20.7895 44.1034 20.9559C43.024 21.1223 41.9231 20.8827 40.9981 20.2801C40.2938 19.8147 39.4584 19.613 38.6294 19.7081C37.8004 19.8032 37.0272 20.1895 36.4371 20.8034L20.2855 37.6242C19.6975 38.2399 19.3283 39.0458 19.2386 39.9091C19.1489 40.7724 19.3442 41.6418 19.7922 42.3742C20.1829 43.0287 20.4158 43.7718 20.471 44.5402C20.5263 45.3086 20.4023 46.0795 20.1097 46.7873C19.817 47.495 19.3644 48.1185 18.7903 48.6047C18.2163 49.0909 17.5378 49.4253 16.8129 49.5793C16.0879 49.7334 15.3379 49.7026 14.6268 49.4896C13.9157 49.2766 13.2647 48.8876 12.7291 48.3559C12.1936 47.8242 11.7895 47.1655 11.5512 46.436C11.3129 45.7064 11.2476 44.9277 11.3608 44.1662C11.4019 43.8934 11.3857 43.6145 11.3134 43.3487C11.2411 43.083 11.1143 42.8367 10.9419 42.6269C10.7694 42.4171 10.5553 42.2487 10.3143 42.1333C10.0734 42.0179 9.81126 41.9583 9.54604 41.9585C9.45154 41.9593 9.35723 41.9673 9.26384 41.9824C8.53339 42.0993 7.78662 42.0308 7.08705 41.7827C6.38748 41.5345 5.75582 41.1141 5.24579 40.5571C4.73577 40.0001 4.36248 39.323 4.15768 38.5835C3.95287 37.844 3.92262 37.0639 4.06949 36.3096C4.21635 35.5553 4.536 34.8491 5.00122 34.251C5.46645 33.653 6.0635 33.1809 6.74157 32.8748C7.41965 32.5687 8.15868 32.4377 8.89581 32.4929C9.63294 32.5481 10.3464 32.788 10.9754 33.192C11.6796 33.6574 12.515 33.8592 13.344 33.764C14.1731 33.6689 14.9463 33.2826 15.5364 32.6688L31.688 15.8479C32.2738 15.2328 32.6416 14.4288 32.7312 13.5676C32.8208 12.7063 32.6269 11.8389 32.1812 11.1075C31.7906 10.453 31.5577 9.70994 31.5024 8.94152C31.4471 8.1731 31.5711 7.40216 31.8638 6.69443C32.1564 5.98669 32.6091 5.36316 33.1831 4.87699C33.7572 4.39082 34.4356 4.05644 35.1606 3.90236C35.8856 3.74827 36.6356 3.77906 37.3466 3.99209C38.0577 4.20511 38.7088 4.59407 39.2443 5.12578C39.7799 5.65749 40.184 6.31619 40.4222 7.04572C40.6605 7.77524 40.7258 8.55396 40.6127 9.31546C40.568 9.61287 40.5914 9.91705 40.681 10.2032C40.7706 10.4894 40.9238 10.7496 41.1282 10.9624C41.3326 11.1753 41.5823 11.3348 41.8571 11.4281C42.132 11.5214 42.424 11.5458 42.7096 11.4993C43.644 11.3419 44.6022 11.4892 45.453 11.921C46.3038 12.3529 47.0056 13.0483 47.4621 13.9117C47.9186 14.7752 48.1076 15.7646 48.003 16.7443C47.8985 17.724 47.5057 18.646 46.8783 19.3841L46.8875 19.3722Z" fill="#FF4D4D"/>
</svg>
