<svg width="80" height="66" viewBox="0 0 80 66" fill="none" xmlns="http://www.w3.org/2000/svg">
<path d="M41.5983 18.7158L32.5317 4.51715C32.0009 3.49922 32.2411 2.26988 33.1304 1.69455C34.1474 1.16042 35.2958 1.41008 35.8675 2.29322L44.9341 16.5774C45.4648 17.5954 45.225 18.8252 44.3354 19.4001C43.321 19.889 42.0782 19.5574 41.5983 18.7158ZM79.6609 21.3674C81.1193 24.0112 77.5044 26.1788 75.8118 27.0982C74.3293 26.9836 72.9181 26.827 71.5779 26.6277C70.2378 26.4282 69.0546 26.2428 68.0282 26.0717C66.8308 25.8436 65.7188 25.6156 64.6924 25.3874C64.5764 25.9577 64.4195 26.5564 64.222 27.1835C64.0214 27.8108 63.7789 28.4666 63.495 29.1508C57.6643 27.8894 50.7976 24.4773 47.5856 19.2289L58.534 8.02402L60.5013 0.924683L64.6924 6.05675C67.5838 6.86955 71.5951 6.92662 72.8182 9.90575C73.8774 11.6903 73.7916 15.4748 74.9565 16.9195C75.5837 17.5468 76.2681 18.117 77.0094 18.6302C77.7506 19.1434 78.6345 20.0559 79.6609 21.3674ZM38.6046 45.1459C36.0134 45.1276 33.3092 44.2286 30.7355 44.205C29.253 44.0341 28.7112 44.6898 29.1103 46.1724L32.7028 60.6276C32.6545 62.9496 31.3931 64.7277 29.538 65.0326C27.7328 65.2061 25.9173 63.5776 25.5179 62.3382L20.899 44.205C20.785 43.5778 20.4286 43.2785 19.8298 43.307C19.2311 43.3354 18.8462 43.6348 18.6751 44.205L14.3984 62.2528C13.8346 63.9464 12.4679 65.0549 10.806 65.0754C8.35269 65.0323 6.65869 62.7535 7.12809 60.6276L12.3457 39.2441L12.7734 26.3285C8.25095 25.1812 2.53602 22.0873 0.285421 17.775C-0.349446 16.3811 0.110688 15.0291 1.31182 14.3537C2.73155 13.7049 4.33742 14.3295 4.90422 15.2945C7.11869 18.7605 12.0072 20.9694 15.3394 21.0253H40.8284C39.2514 28.9356 38.369 36.8462 38.6046 45.1459ZM44.8486 22.4794C49.1662 28.0942 55.3886 31.6128 62.0409 33C61.4218 34.8534 60.5948 36.6567 60.0309 38.3459C59.7742 39.1157 59.8456 40.2418 60.2447 41.7246C61.8838 48.004 63.686 54.7082 65.2912 60.542C65.9164 65.4286 59.1299 65.3246 58.1064 62.3382L54.4284 48.3106C53.4135 46.588 50.8754 46.1859 50.3228 48.3106L46.987 62.2527C45.2607 66.5575 39.1016 63.6632 39.8022 60.6276L42.9669 47.6264C43.024 47.1701 42.9954 46.7138 42.8814 46.2579C42.9364 38.3362 43.1892 30.2315 44.8486 22.4794Z" fill="#F3BCC8"/>
</svg>
