<svg width="25" height="25" viewBox="0 0 25 25" fill="none" xmlns="http://www.w3.org/2000/svg">
<path fill-rule="evenodd" clip-rule="evenodd" d="M5.20834 9.37501C5.20834 5.35418 8.47918 2.08334 12.5 2.08334C16.5208 2.08334 19.7917 5.35418 19.7917 9.37501C19.7917 14.8438 12.5 22.9167 12.5 22.9167C12.5 22.9167 5.20834 14.8438 5.20834 9.37501ZM10.7919 4.00006C11.3896 4.00762 11.9423 4.70955 12.0583 5.64447C12.1819 6.64164 11.7619 7.52651 11.1198 7.61956C10.4777 7.7126 9.85613 6.97868 9.73246 5.98146C9.60879 4.98424 10.0304 4.10094 10.6724 4.00789C10.712 4.00215 10.7519 3.99955 10.7919 4.00006ZM8.00124 6.76603C8.56884 6.76412 9.17973 7.31825 9.46876 8.15514C9.81118 9.14706 9.57107 10.161 8.93248 10.4186C8.29376 10.6761 7.49854 10.0811 7.15602 9.0892C6.81355 8.09727 7.05366 7.08342 7.6923 6.82581C7.79117 6.78621 7.89579 6.766 8.00124 6.76603ZM16.927 6.79275C17.0107 6.79023 17.0938 6.80071 17.1762 6.82425C17.8352 7.01261 18.1669 7.9948 17.9165 9.01828C17.666 10.042 16.9288 10.7189 16.2697 10.5304C15.6107 10.3421 15.279 9.35986 15.5294 8.33633C15.7486 7.44068 16.3409 6.81014 16.927 6.79275ZM12.5085 8.22136C13.3628 8.22136 14.0765 9.22479 14.2602 10.5698L14.2674 10.5719C14.2931 10.5794 14.3187 10.5869 14.3446 10.595C15.9377 11.0953 17.0139 12.4448 16.7477 13.6097C16.4814 14.7745 14.9744 15.3134 13.3814 14.8131C13.0713 14.7157 12.7806 14.5861 12.5158 14.4319C12.2409 14.5915 11.9513 14.7192 11.6517 14.8131C10.0586 15.3134 8.55164 14.7746 8.28537 13.6097C8.01909 12.4449 9.09388 11.0953 10.6869 10.595C10.7094 10.5879 10.7315 10.5812 10.7539 10.5745C10.9366 9.22716 11.6533 8.22136 12.5085 8.22136ZM14.2325 4.00007C14.2723 3.99957 14.3119 4.0021 14.352 4.00794C14.994 4.10099 15.4141 4.98424 15.2905 5.98151C15.1668 6.97873 14.5467 7.71265 13.9046 7.6196C13.2625 7.52661 12.8425 6.64169 12.9661 5.64447C13.082 4.7095 13.6348 4.00758 14.2325 4.00007Z" fill="#FF4D4D"/>
<path d="M8.00124 6.76603C8.56884 6.76412 9.17973 7.31825 9.46876 8.15514C9.81118 9.14706 9.57107 10.161 8.93248 10.4186C8.29376 10.6761 7.49854 10.0811 7.15602 9.0892C6.81355 8.09727 7.05366 7.08342 7.6923 6.82581C7.79117 6.78621 7.89579 6.766 8.00124 6.76603Z" fill="#ECECEC"/>
<path d="M16.927 6.79275C17.0107 6.79023 17.0938 6.80071 17.1762 6.82425C17.8352 7.01261 18.1669 7.9948 17.9165 9.01828C17.666 10.042 16.9288 10.7189 16.2697 10.5304C15.6107 10.3421 15.279 9.35986 15.5294 8.33633C15.7486 7.44068 16.3409 6.81014 16.927 6.79275Z" fill="#ECECEC"/>
<path d="M14.2602 10.5698C14.0765 9.22479 13.3628 8.22136 12.5085 8.22136C11.6533 8.22136 10.9366 9.22716 10.7539 10.5745C10.7315 10.5812 10.7094 10.5879 10.6869 10.595C9.09388 11.0953 8.01909 12.4449 8.28537 13.6097C8.55164 14.7746 10.0586 15.3134 11.6517 14.8131C11.9513 14.7192 12.2409 14.5915 12.5158 14.4319C12.7806 14.5861 13.0713 14.7157 13.3814 14.8131C14.9744 15.3134 16.4814 14.7745 16.7477 13.6097C17.0139 12.4448 15.9377 11.0953 14.3446 10.595C14.3187 10.5869 14.2931 10.5794 14.2674 10.5719L14.2602 10.5698Z" fill="#ECECEC"/>
<path d="M10.7919 4.00006C11.3896 4.00762 11.9423 4.70955 12.0583 5.64447C12.1819 6.64164 11.7619 7.52651 11.1198 7.61956C10.4777 7.7126 9.85613 6.97868 9.73246 5.98146C9.60879 4.98424 10.0304 4.10094 10.6724 4.00789C10.712 4.00215 10.7519 3.99955 10.7919 4.00006Z" fill="#ECECEC"/>
<path d="M14.352 4.00794C14.3119 4.0021 14.2723 3.99957 14.2325 4.00007C13.6348 4.00758 13.082 4.7095 12.9661 5.64447C12.8425 6.64169 13.2625 7.52661 13.9046 7.6196C14.5467 7.71265 15.1668 6.97873 15.2905 5.98151C15.4141 4.98424 14.994 4.10099 14.352 4.00794Z" fill="#ECECEC"/>
</svg>
