<svg width="63" height="60" viewBox="0 0 63 60" fill="none" xmlns="http://www.w3.org/2000/svg">
<path fill-rule="evenodd" clip-rule="evenodd" d="M30.665 9.23697C34.2603 2.95483 39.8283 0.0766966 45.3111 0.00151408C53.8643 -0.115792 62.2126 6.58985 62.5628 17.835C62.9179 29.2525 52.2481 38.5998 43.2453 46.4866C37.4809 51.5365 32.3999 55.9877 31.334 60.0003C30.1328 55.4776 24.922 50.9296 19.0844 45.8346C10.4221 38.2742 0.379694 29.5093 0.0101126 17.835C-0.583429 -0.932669 25.127 -6.46205 30.665 9.23697ZM25.9784 12.6403C27.672 12.6603 29.2381 14.5167 29.5667 16.9893C29.9171 19.6265 28.7269 21.9668 26.9075 22.2129C25.0881 22.459 23.327 20.5179 22.9766 17.8806C22.6262 15.2432 23.8206 12.907 25.6398 12.661C25.7521 12.6458 25.8651 12.639 25.9784 12.6403ZM18.0711 19.9555C19.6795 19.9505 21.4104 21.416 22.2294 23.6294C23.1996 26.2527 22.5193 28.9344 20.7098 29.6156C18.9 30.2967 16.6467 28.7231 15.6762 26.0997C14.7058 23.4763 15.3862 20.7949 17.1957 20.1136C17.4759 20.0089 17.7723 19.9554 18.0711 19.9555ZM36.0661 12.6611C35.9523 12.6456 35.8402 12.639 35.7274 12.6403C34.0339 12.6602 32.4675 14.5165 32.1392 16.9893C31.7888 19.6267 32.979 21.9671 34.7982 22.213C36.6177 22.4591 38.3748 20.5181 38.7252 17.8807C39.0755 15.2432 37.8853 12.9072 36.0661 12.6611ZM43.3622 20.0262C43.5995 20.0195 43.8348 20.0473 44.0683 20.1095C45.9356 20.6077 46.8756 23.2053 46.1659 25.9122C45.4564 28.6195 43.3673 30.4098 41.4999 29.9112C39.6326 29.4132 38.6927 26.8155 39.4023 24.1086C40.0233 21.7398 41.7015 20.0722 43.3622 20.0262ZM35.8059 30.0156C35.2854 26.4583 33.2633 23.8045 30.8426 23.8045C28.4191 23.8045 26.3885 26.4646 25.8709 30.028C25.8074 30.0456 25.7448 30.0635 25.6811 30.0821C21.1671 31.4054 18.1217 34.9747 18.8762 38.0553C19.6307 41.1361 23.9007 42.5612 28.4146 41.2379C29.2637 40.9897 30.0843 40.6518 30.8631 40.2298C31.6134 40.6375 32.4372 40.9803 33.3158 41.2379C37.8296 42.5612 42.0998 41.136 42.8543 38.0553C43.6086 34.9745 40.5591 31.4054 36.045 30.0823C35.9718 30.0607 35.8993 30.041 35.8262 30.0211L35.8059 30.0156Z" fill="#FF4D4D"/>
</svg>
